<?xml version="1.0" encoding="UTF-8"?><svg id="Layer_2" xmlns="http://www.w3.org/2000/svg" xmlns:xlink="http://www.w3.org/1999/xlink" viewBox="0 0 537.29 501.83"><defs><style>.cls-1{fill:none;}.cls-2{clip-path:url(#clippath-1);}.cls-3{fill:#fee8bb;}.cls-4{fill:#dd8f3e;}.cls-5{clip-path:url(#clippath);}.cls-6{fill:#764216;}</style><clipPath id="clippath"><rect class="cls-1" x="52.65" y="69.83" width="432" height="432"/></clipPath><clipPath id="clippath-1"><rect class="cls-3" x="52.65" y="69.83" width="432" height="179.53"/></clipPath></defs><g id="Layer_1-2"><rect class="cls-6" x="52.65" y="69.83" width="432" height="432"/><g class="cls-5"><rect class="cls-4" x="77.2" y="276.49" width="41.21" height="39.06" rx="5.09" ry="5.09"/><rect class="cls-4" x="133.98" y="276.49" width="41.21" height="39.06" rx="5.09" ry="5.09"/><rect class="cls-4" x="190.76" y="276.49" width="41.21" height="39.06" rx="5.09" ry="5.09"/><rect class="cls-4" x="247.54" y="276.49" width="41.21" height="39.06" rx="5.09" ry="5.09"/><rect class="cls-4" x="304.32" y="276.49" width="41.21" height="39.06" rx="5.09" ry="5.09"/><rect class="cls-4" x="361.1" y="276.49" width="41.21" height="39.06" rx="5.09" ry="5.09"/><rect class="cls-4" x="417.88" y="276.49" width="41.21" height="39.06" rx="5.09" ry="5.09"/><rect class="cls-4" x="77.87" y="328.98" width="72.26" height="39.06" rx="5.09" ry="5.09"/><rect class="cls-4" x="162.37" y="328.98" width="41.21" height="39.06" rx="5.09" ry="5.09"/><rect class="cls-4" x="219.15" y="328.98" width="41.21" height="39.06" rx="5.09" ry="5.09"/><rect class="cls-4" x="275.93" y="328.98" width="41.21" height="39.06" rx="5.09" ry="5.09"/><rect class="cls-4" x="332.71" y="328.98" width="41.21" height="39.06" rx="5.09" ry="5.09"/><rect class="cls-4" x="387.62" y="328.98" width="72.13" height="39.06" rx="5.09" ry="5.09"/><rect class="cls-4" x="77.53" y="381.42" width="41.21" height="39.06" rx="5.09" ry="5.09"/><rect class="cls-4" x="134.31" y="381.42" width="41.21" height="39.06" rx="5.09" ry="5.09"/><rect class="cls-4" x="191.09" y="381.42" width="41.21" height="39.06" rx="5.09" ry="5.09"/><rect class="cls-4" x="247.87" y="381.42" width="41.21" height="39.06" rx="5.09" ry="5.09"/><rect class="cls-4" x="304.66" y="381.42" width="41.21" height="39.06" rx="5.09" ry="5.09"/><rect class="cls-4" x="361.44" y="381.42" width="41.21" height="39.06" rx="5.09" ry="5.09"/><rect class="cls-4" x="418.22" y="381.42" width="41.21" height="39.06" rx="5.09" ry="5.09"/><rect class="cls-4" x="78.2" y="433.91" width="72.26" height="39.06" rx="5.09" ry="5.09"/><rect class="cls-4" x="166.84" y="434.28" width="203.96" height="39.06" rx="5.09" ry="5.09"/><rect class="cls-4" x="387.96" y="433.91" width="72.13" height="39.06" rx="5.09" ry="5.09"/><rect class="cls-3" x="52.65" y="69.83" width="432" height="179.53"/><g class="cls-2"><rect class="cls-4" x="175.02" y="105.28" width="63.13" height="54.73" transform="translate(-33.29 184.92) rotate(-45)"/><rect class="cls-4" x="40.85" y="51.11" width="51.94" height="121.5" transform="translate(-59.52 80.02) rotate(-45)"/><rect class="cls-4" x="104.24" y="13.52" width="75.28" height="89.42" transform="translate(.38 117.38) rotate(-45)"/><rect class="cls-4" x="121.86" y="168.31" width="50.59" height="51.75" transform="translate(-94.21 160.9) rotate(-44.99)"/><rect class="cls-4" x="10.89" y="168.31" width="50.59" height="51.75" transform="translate(-126.7 82.45) rotate(-44.99)"/><polygon class="cls-4" points="42.56 260.2 137.03 260.2 89.8 212.98 42.56 260.2"/><polygon class="cls-4" points="157.29 261.78 251.75 261.78 204.52 214.55 157.29 261.78"/><rect class="cls-4" x="303.35" y="101.08" width="54.73" height="63.13" transform="translate(3.06 272.67) rotate(-44.99)"/><rect class="cls-4" x="233.63" y="24.75" width="70.03" height="70.03" transform="translate(36.43 207.47) rotate(-45)"/><rect class="cls-4" x="233.63" y="164.58" width="70.03" height="70.03" transform="translate(-62.45 248.4) rotate(-45)"/><rect class="cls-4" x="409.72" y="85.89" width="121.5" height="51.94" transform="translate(58.7 365.43) rotate(-45)"/><rect class="cls-4" x="350.7" y="20.59" width="89.42" height="75.28" transform="translate(74.65 296.67) rotate(-45)"/><rect class="cls-4" x="364.27" y="168.89" width="51.75" height="50.59" transform="translate(-23.04 332.74) rotate(-45)"/><rect class="cls-4" x="475.24" y="168.89" width="51.75" height="50.59" transform="translate(9.46 411.2) rotate(-45)"/><polygon class="cls-4" points="400.27 260.2 494.73 260.2 447.5 212.98 400.27 260.2"/><polygon class="cls-4" points="285.54 261.78 380 261.78 332.77 214.55 285.54 261.78"/></g></g></g></svg>