<?xml version="1.0" encoding="UTF-8"?><svg id="Layer_2" xmlns="http://www.w3.org/2000/svg" xmlns:xlink="http://www.w3.org/1999/xlink" viewBox="0 0 432 432"><defs><style>.cls-1{fill:none;}.cls-2{clip-path:url(#clippath-1);}.cls-3{fill:#fee8bb;}.cls-4{fill:#dd8f3e;}.cls-5{clip-path:url(#clippath);}</style><clipPath id="clippath"><rect class="cls-1" width="432" height="432"/></clipPath><clipPath id="clippath-1"><rect class="cls-3" width="432" height="179.53"/></clipPath></defs><g id="Layer_1-2"><g class="cls-5"><rect class="cls-4" x="24.56" y="206.67" width="41.21" height="39.06" rx="5.09" ry="5.09"/><rect class="cls-4" x="81.34" y="206.67" width="41.21" height="39.06" rx="5.09" ry="5.09"/><rect class="cls-4" x="138.12" y="206.67" width="41.21" height="39.06" rx="5.09" ry="5.09"/><rect class="cls-4" x="194.9" y="206.67" width="41.21" height="39.06" rx="5.09" ry="5.09"/><rect class="cls-4" x="251.68" y="206.67" width="41.21" height="39.06" rx="5.09" ry="5.09"/><rect class="cls-4" x="308.46" y="206.67" width="41.21" height="39.06" rx="5.09" ry="5.09"/><rect class="cls-4" x="365.24" y="206.67" width="41.21" height="39.06" rx="5.09" ry="5.09"/><rect class="cls-4" x="25.22" y="259.15" width="72.26" height="39.06" rx="5.09" ry="5.09"/><rect class="cls-4" x="109.73" y="259.15" width="41.21" height="39.06" rx="5.09" ry="5.09"/><rect class="cls-4" x="166.51" y="259.15" width="41.21" height="39.06" rx="5.09" ry="5.09"/><rect class="cls-4" x="223.29" y="259.15" width="41.21" height="39.06" rx="5.09" ry="5.09"/><rect class="cls-4" x="280.07" y="259.15" width="41.21" height="39.06" rx="5.09" ry="5.09"/><rect class="cls-4" x="334.98" y="259.15" width="72.13" height="39.06" rx="5.09" ry="5.09"/><rect class="cls-4" x="24.89" y="311.59" width="41.21" height="39.06" rx="5.09" ry="5.09"/><rect class="cls-4" x="81.67" y="311.59" width="41.21" height="39.06" rx="5.09" ry="5.09"/><rect class="cls-4" x="138.45" y="311.59" width="41.21" height="39.06" rx="5.09" ry="5.09"/><rect class="cls-4" x="195.23" y="311.59" width="41.21" height="39.06" rx="5.09" ry="5.09"/><rect class="cls-4" x="252.01" y="311.59" width="41.21" height="39.06" rx="5.09" ry="5.09"/><rect class="cls-4" x="308.79" y="311.59" width="41.21" height="39.06" rx="5.09" ry="5.09"/><rect class="cls-4" x="365.57" y="311.59" width="41.21" height="39.06" rx="5.09" ry="5.09"/><rect class="cls-4" x="25.55" y="364.08" width="72.26" height="39.06" rx="5.09" ry="5.09"/><rect class="cls-4" x="114.19" y="364.45" width="203.96" height="39.06" rx="5.09" ry="5.09"/><rect class="cls-4" x="335.31" y="364.08" width="72.13" height="39.06" rx="5.09" ry="5.09"/><rect class="cls-3" width="432" height="179.53"/><g class="cls-2"><rect class="cls-4" x="122.37" y="35.45" width="63.13" height="54.73" transform="translate(.67 127.24) rotate(-45)"/><rect class="cls-4" x="-11.79" y="-18.72" width="51.94" height="121.5" transform="translate(-25.57 22.34) rotate(-45)"/><rect class="cls-4" x="51.6" y="-56.31" width="75.28" height="89.42" transform="translate(34.34 59.7) rotate(-45)"/><rect class="cls-4" x="69.21" y="98.49" width="50.59" height="51.75" transform="translate(-60.26 103.23) rotate(-44.99)"/><rect class="cls-4" x="-41.76" y="98.49" width="50.59" height="51.75" transform="translate(-92.75 24.78) rotate(-44.99)"/><polygon class="cls-4" points="-10.08 190.38 84.38 190.38 37.15 143.15 -10.08 190.38"/><polygon class="cls-4" points="104.65 191.95 199.11 191.95 151.88 144.73 104.65 191.95"/><rect class="cls-4" x="250.7" y="31.26" width="54.73" height="63.13" transform="translate(37.01 215) rotate(-44.99)"/><rect class="cls-4" x="180.99" y="-45.08" width="70.03" height="70.03" transform="translate(70.38 149.79) rotate(-45)"/><rect class="cls-4" x="180.99" y="94.75" width="70.03" height="70.03" transform="translate(-28.5 190.73) rotate(-45)"/><rect class="cls-4" x="357.07" y="16.06" width="121.5" height="51.94" transform="translate(92.65 307.75) rotate(-45)"/><rect class="cls-4" x="298.05" y="-49.24" width="89.42" height="75.28" transform="translate(108.61 238.99) rotate(-45)"/><rect class="cls-4" x="311.62" y="99.07" width="51.75" height="50.59" transform="translate(10.91 275.06) rotate(-45)"/><rect class="cls-4" x="422.59" y="99.07" width="51.75" height="50.59" transform="translate(43.41 353.53) rotate(-45)"/><polygon class="cls-4" points="347.62 190.38 442.08 190.38 394.85 143.15 347.62 190.38"/><polygon class="cls-4" points="232.89 191.95 327.35 191.95 280.12 144.73 232.89 191.95"/></g></g></g></svg>