<?xml version="1.0" encoding="UTF-8"?><svg id="Layer_2" xmlns="http://www.w3.org/2000/svg" xmlns:xlink="http://www.w3.org/1999/xlink" viewBox="0 0 432 403.53"><defs><style>.cls-1{fill:#fee8bb;}.cls-2{fill:#dd8f3e;}.cls-3{fill:#e69f4f;}.cls-4{clip-path:url(#clippath);}</style><clipPath id="clippath"><rect class="cls-1" width="432" height="189.14"/></clipPath></defs><g id="Layer_1-2"><rect class="cls-1" width="432" height="189.14"/><g class="cls-4"><rect class="cls-2" x="122.37" y="35.45" width="63.13" height="54.73" transform="translate(.67 127.24) rotate(-45)"/><rect class="cls-2" x="-11.79" y="-18.72" width="51.94" height="121.5" transform="translate(-25.57 22.34) rotate(-45)"/><rect class="cls-2" x="51.6" y="-56.31" width="75.28" height="89.42" transform="translate(34.34 59.7) rotate(-45)"/><rect class="cls-2" x="69.21" y="98.49" width="50.59" height="51.75" transform="translate(-60.26 103.23) rotate(-44.99)"/><rect class="cls-2" x="-41.76" y="98.49" width="50.59" height="51.75" transform="translate(-92.75 24.78) rotate(-44.99)"/><polygon class="cls-2" points="-10.08 190.38 84.38 190.38 37.15 143.15 -10.08 190.38"/><polygon class="cls-2" points="104.65 191.95 199.11 191.95 151.88 144.73 104.65 191.95"/><rect class="cls-2" x="250.7" y="31.26" width="54.73" height="63.13" transform="translate(37.01 215) rotate(-44.99)"/><rect class="cls-2" x="180.99" y="-45.08" width="70.03" height="70.03" transform="translate(70.38 149.79) rotate(-45)"/><rect class="cls-2" x="180.99" y="94.75" width="70.03" height="70.03" transform="translate(-28.5 190.73) rotate(-45)"/><rect class="cls-2" x="357.07" y="16.06" width="121.5" height="51.94" transform="translate(92.65 307.75) rotate(-45)"/><rect class="cls-2" x="298.05" y="-49.24" width="89.42" height="75.28" transform="translate(108.61 238.99) rotate(-45)"/><rect class="cls-2" x="311.62" y="99.07" width="51.75" height="50.59" transform="translate(10.91 275.06) rotate(-45)"/><rect class="cls-2" x="422.59" y="99.07" width="51.75" height="50.59" transform="translate(43.41 353.53) rotate(-45)"/><polygon class="cls-2" points="347.62 190.38 442.08 190.38 394.85 143.15 347.62 190.38"/><polygon class="cls-2" points="232.89 191.95 327.35 191.95 280.12 144.73 232.89 191.95"/></g><rect class="cls-3" x="23.28" y="224.21" width="48.86" height="47.59" rx="6.12" ry="6.12"/><rect class="cls-3" x="90.6" y="224.21" width="48.86" height="47.59" rx="6.12" ry="6.12"/><rect class="cls-3" x="157.91" y="224.21" width="48.86" height="47.59" rx="6.12" ry="6.12"/><rect class="cls-3" x="225.23" y="224.21" width="48.86" height="47.59" rx="6.12" ry="6.12"/><rect class="cls-3" x="292.54" y="224.21" width="48.86" height="47.59" rx="6.12" ry="6.12"/><rect class="cls-3" x="359.86" y="224.21" width="48.86" height="47.59" rx="6.12" ry="6.12"/><rect class="cls-3" x="23.28" y="290.27" width="83.77" height="47.59" rx="6.12" ry="6.12"/><rect class="cls-3" x="124.07" y="290.27" width="48.86" height="47.59" rx="6.12" ry="6.12"/><rect class="cls-3" x="191.38" y="290.27" width="48.86" height="47.59" rx="6.12" ry="6.12"/><rect class="cls-3" x="258.7" y="290.27" width="48.86" height="47.59" rx="6.12" ry="6.12"/><rect class="cls-3" x="23.28" y="355.94" width="48.86" height="47.59" rx="6.12" ry="6.12"/><rect class="cls-3" x="90.6" y="355.94" width="48.86" height="47.59" rx="6.12" ry="6.12"/><path class="cls-3" d="M335.2,403.53h-171.09c-3.42,0-6.2-2.7-6.2-6.04v-35.51c0-3.33,2.78-6.04,6.2-6.04h171.09c3.42,0,6.2,2.7,6.2,6.04v35.51c0,3.33-2.78,6.04-6.2,6.04Z"/><rect class="cls-3" x="359.86" y="355.94" width="48.86" height="47.59" rx="6.12" ry="6.12"/><rect class="cls-3" x="324.95" y="290.27" width="83.77" height="47.59" rx="6.12" ry="6.12"/></g></svg>