<svg viewBox="0 0 432 432" xmlns="http://www.w3.org/2000/svg" xmlns:xlink="http://www.w3.org/1999/xlink"><clipPath id="a"><path d="m0 0h432v432h-432z"/></clipPath><clipPath id="b"><path d="m0 0h432v189.14h-432z"/></clipPath><g clip-path="url(#a)"><path d="m0 0h432v432h-432z" fill="#764216"/><path d="m0 0h432v189.14h-432z" fill="#fee8bb"/><g clip-path="url(#b)" fill="#dd8f3e"><path d="m122.37 35.45h63.13v54.73h-63.13z" transform="matrix(.70710678 -.70710678 .70710678 .70710678 .67 127.24)"/><path d="m-11.79-18.72h51.94v121.5h-51.94z" transform="matrix(.70710678 -.70710678 .70710678 .70710678 -25.57 22.34)"/><path d="m51.6-56.31h75.28v89.42h-75.28z" transform="matrix(.70710678 -.70710678 .70710678 .70710678 34.34 59.7)"/><path d="m69.21 98.49h50.59v51.75h-50.59z" transform="matrix(.70723018 -.70698336 .70698336 .70723018 -60.26 103.23)"/><path d="m-41.76 98.49h50.59v51.75h-50.59z" transform="matrix(.70723018 -.70698336 .70698336 .70723018 -92.75 24.78)"/><path d="m-10.08 190.38h94.46l-47.23-47.23z"/><path d="m104.65 191.95h94.46l-47.23-47.22z"/><path d="m250.7 31.26h54.73v63.13h-54.73z" transform="matrix(.70723018 -.70698336 .70698336 .70723018 37.01 215)"/><path d="m180.99-45.08h70.03v70.03h-70.03z" transform="matrix(.70710678 -.70710678 .70710678 .70710678 70.38 149.79)"/><path d="m180.99 94.75h70.03v70.03h-70.03z" transform="matrix(.70710678 -.70710678 .70710678 .70710678 -28.5 190.73)"/><path d="m357.07 16.06h121.5v51.94h-121.5z" transform="matrix(.70710678 -.70710678 .70710678 .70710678 92.65 307.75)"/><path d="m298.05-49.24h89.42v75.28h-89.42z" transform="matrix(.70710678 -.70710678 .70710678 .70710678 108.61 238.99)"/><path d="m311.62 99.07h51.75v50.59h-51.75z" transform="matrix(.70710678 -.70710678 .70710678 .70710678 10.91 275.06)"/><path d="m422.59 99.07h51.75v50.59h-51.75z" transform="matrix(.70710678 -.70710678 .70710678 .70710678 43.41 353.53)"/><path d="m347.62 190.38h94.46l-47.23-47.23z"/><path d="m232.89 191.95h94.46l-47.23-47.22z"/></g><g fill="#e69f4f"><rect height="47.59" rx="6.12" width="48.86" x="23.28" y="224.21"/><rect height="47.59" rx="6.12" width="48.86" x="90.6" y="224.21"/><rect height="47.59" rx="6.12" width="48.86" x="157.91" y="224.21"/><rect height="47.59" rx="6.12" width="48.86" x="225.23" y="224.21"/><rect height="47.59" rx="6.12" width="48.86" x="292.54" y="224.21"/><rect height="47.59" rx="6.12" width="48.86" x="359.86" y="224.21"/><rect height="47.59" rx="6.12" width="83.77" x="23.28" y="290.27"/><rect height="47.59" rx="6.12" width="48.86" x="124.07" y="290.27"/><rect height="47.59" rx="6.12" width="48.86" x="191.38" y="290.27"/><rect height="47.59" rx="6.12" width="48.86" x="258.7" y="290.27"/><rect height="47.59" rx="6.12" width="48.86" x="23.28" y="355.94"/><rect height="47.59" rx="6.12" width="48.86" x="90.6" y="355.94"/><path d="m335.2 403.53h-171.09c-3.42 0-6.2-2.7-6.2-6.04v-35.51c0-3.33 2.78-6.04 6.2-6.04h171.09c3.42 0 6.2 2.7 6.2 6.04v35.51c0 3.33-2.78 6.04-6.2 6.04z"/><rect height="47.59" rx="6.12" width="48.86" x="359.86" y="355.94"/><rect height="47.59" rx="6.12" width="83.77" x="324.95" y="290.27"/></g></g></svg>